<svg xmlns="http://www.w3.org/2000/svg" viewBox="0 0 128 128"><defs><clipPath id="r"><rect width="128" height="128" rx="28"/></clipPath></defs><rect width="128" height="128" rx="28" fill="#10122a"/><g clip-path="url(#r)"><rect x="0" y="100" width="128" height="28" fill="#c2553e"/><rect x="0" y="100" width="128" height="2" fill="#ffffff"/><rect x="0" y="114" width="128" height="1" fill="#ffffff"/><rect x="0" y="94" width="128" height="6" fill="#3c9a3c"/><rect x="19" y="22" width="7" height="7" fill="#ffd95c"/><rect x="19" y="29" width="7" height="7" fill="#ffd95c"/><rect x="12" y="36" width="7" height="7" fill="#ffd95c"/><rect x="54" y="22" width="7" height="7" fill="#ffd95c"/><rect x="61" y="22" width="7" height="7" fill="#ffd95c"/><rect x="68" y="22" width="7" height="7" fill="#ffd95c"/><rect x="47" y="29" width="7" height="7" fill="#ffd95c"/><rect x="75" y="29" width="7" height="7" fill="#ffd95c"/><rect x="47" y="36" width="7" height="7" fill="#ffd95c"/><rect x="75" y="36" width="7" height="7" fill="#ffd95c"/><rect x="54" y="43" width="7" height="7" fill="#ffd95c"/><rect x="61" y="43" width="7" height="7" fill="#ffd95c"/><rect x="68" y="43" width="7" height="7" fill="#ffd95c"/><rect x="47" y="50" width="7" height="7" fill="#ffd95c"/><rect x="75" y="50" width="7" height="7" fill="#ffd95c"/><rect x="47" y="57" width="7" height="7" fill="#ffd95c"/><rect x="75" y="57" width="7" height="7" fill="#ffd95c"/><rect x="54" y="64" width="7" height="7" fill="#ffd95c"/><rect x="61" y="64" width="7" height="7" fill="#ffd95c"/><rect x="68" y="64" width="7" height="7" fill="#ffd95c"/><rect x="96" y="22" width="7" height="7" fill="#ffd95c"/><rect x="103" y="22" width="7" height="7" fill="#ffd95c"/><rect x="110" y="22" width="7" height="7" fill="#ffd95c"/><rect x="89" y="29" width="7" height="7" fill="#ffd95c"/><rect x="117" y="29" width="7" height="7" fill="#ffd95c"/><rect x="89" y="36" width="7" height="7" fill="#ffd95c"/><rect x="117" y="36" width="7" height="7" fill="#ffd95c"/><rect x="96" y="43" width="7" height="7" fill="#ffd95c"/><rect x="103" y="43" width="7" height="7" fill="#ffd95c"/><rect x="110" y="43" width="7" height="7" fill="#ffd95c"/><rect x="89" y="50" width="7" height="7" fill="#ffd95c"/><rect x="117" y="50" width="7" height="7" fill="#ffd95c"/><rect x="89" y="57" width="7" height="7" fill="#ffd95c"/><rect x="117" y="57" width="7" height="7" fill="#ffd95c"/><rect x="96" y="64" width="7" height="7" fill="#ffd95c"/><rect x="103" y="64" width="7" height="7" fill="#ffd95c"/><rect x="110" y="64" width="7" height="7" fill="#ffd95c"/><rect x="13" y="76" width="2" height="2" fill="#ffffff"/><rect x="15" y="76" width="2" height="2" fill="#ffffff"/><rect x="17" y="76" width="2" height="2" fill="#ffffff"/><rect x="11" y="78" width="2" height="2" fill="#ffffff"/><rect x="19" y="78" width="2" height="2" fill="#ffffff"/><rect x="11" y="80" width="2" height="2" fill="#ffffff"/><rect x="19" y="80" width="2" height="2" fill="#ffffff"/><rect x="11" y="82" width="2" height="2" fill="#ffffff"/><rect x="13" y="82" width="2" height="2" fill="#ffffff"/><rect x="15" y="82" width="2" height="2" fill="#ffffff"/><rect x="17" y="82" width="2" height="2" fill="#ffffff"/><rect x="19" y="82" width="2" height="2" fill="#ffffff"/><rect x="11" y="84" width="2" height="2" fill="#ffffff"/><rect x="19" y="84" width="2" height="2" fill="#ffffff"/><rect x="11" y="86" width="2" height="2" fill="#ffffff"/><rect x="19" y="86" width="2" height="2" fill="#ffffff"/><rect x="11" y="88" width="2" height="2" fill="#ffffff"/><rect x="19" y="88" width="2" height="2" fill="#ffffff"/><rect x="23" y="76" width="2" height="2" fill="#ffffff"/><rect x="25" y="76" width="2" height="2" fill="#ffffff"/><rect x="27" y="76" width="2" height="2" fill="#ffffff"/><rect x="29" y="76" width="2" height="2" fill="#ffffff"/><rect x="31" y="76" width="2" height="2" fill="#ffffff"/><rect x="27" y="78" width="2" height="2" fill="#ffffff"/><rect x="27" y="80" width="2" height="2" fill="#ffffff"/><rect x="27" y="82" width="2" height="2" fill="#ffffff"/><rect x="27" y="84" width="2" height="2" fill="#ffffff"/><rect x="27" y="86" width="2" height="2" fill="#ffffff"/><rect x="27" y="88" width="2" height="2" fill="#ffffff"/><rect x="35" y="76" width="2" height="2" fill="#ffffff"/><rect x="43" y="76" width="2" height="2" fill="#ffffff"/><rect x="35" y="78" width="2" height="2" fill="#ffffff"/><rect x="43" y="78" width="2" height="2" fill="#ffffff"/><rect x="35" y="80" width="2" height="2" fill="#ffffff"/><rect x="43" y="80" width="2" height="2" fill="#ffffff"/><rect x="35" y="82" width="2" height="2" fill="#ffffff"/><rect x="37" y="82" width="2" height="2" fill="#ffffff"/><rect x="39" y="82" width="2" height="2" fill="#ffffff"/><rect x="41" y="82" width="2" height="2" fill="#ffffff"/><rect x="43" y="82" width="2" height="2" fill="#ffffff"/><rect x="35" y="84" width="2" height="2" fill="#ffffff"/><rect x="43" y="84" width="2" height="2" fill="#ffffff"/><rect x="35" y="86" width="2" height="2" fill="#ffffff"/><rect x="43" y="86" width="2" height="2" fill="#ffffff"/><rect x="35" y="88" width="2" height="2" fill="#ffffff"/><rect x="43" y="88" width="2" height="2" fill="#ffffff"/><rect x="47" y="76" width="2" height="2" fill="#ffffff"/><rect x="47" y="78" width="2" height="2" fill="#ffffff"/><rect x="47" y="80" width="2" height="2" fill="#ffffff"/><rect x="47" y="82" width="2" height="2" fill="#ffffff"/><rect x="47" y="84" width="2" height="2" fill="#ffffff"/><rect x="47" y="86" width="2" height="2" fill="#ffffff"/><rect x="47" y="88" width="2" height="2" fill="#ffffff"/><rect x="49" y="88" width="2" height="2" fill="#ffffff"/><rect x="51" y="88" width="2" height="2" fill="#ffffff"/><rect x="53" y="88" width="2" height="2" fill="#ffffff"/><rect x="55" y="88" width="2" height="2" fill="#ffffff"/><rect x="59" y="76" width="2" height="2" fill="#ffffff"/><rect x="61" y="76" width="2" height="2" fill="#ffffff"/><rect x="63" y="76" width="2" height="2" fill="#ffffff"/><rect x="65" y="76" width="2" height="2" fill="#ffffff"/><rect x="67" y="76" width="2" height="2" fill="#ffffff"/><rect x="59" y="78" width="2" height="2" fill="#ffffff"/><rect x="59" y="80" width="2" height="2" fill="#ffffff"/><rect x="59" y="82" width="2" height="2" fill="#ffffff"/><rect x="61" y="82" width="2" height="2" fill="#ffffff"/><rect x="63" y="82" width="2" height="2" fill="#ffffff"/><rect x="65" y="82" width="2" height="2" fill="#ffffff"/><rect x="59" y="84" width="2" height="2" fill="#ffffff"/><rect x="59" y="86" width="2" height="2" fill="#ffffff"/><rect x="59" y="88" width="2" height="2" fill="#ffffff"/><rect x="61" y="88" width="2" height="2" fill="#ffffff"/><rect x="63" y="88" width="2" height="2" fill="#ffffff"/><rect x="65" y="88" width="2" height="2" fill="#ffffff"/><rect x="67" y="88" width="2" height="2" fill="#ffffff"/><rect x="71" y="76" width="2" height="2" fill="#ffffff"/><rect x="73" y="76" width="2" height="2" fill="#ffffff"/><rect x="75" y="76" width="2" height="2" fill="#ffffff"/><rect x="77" y="76" width="2" height="2" fill="#ffffff"/><rect x="79" y="76" width="2" height="2" fill="#ffffff"/><rect x="75" y="78" width="2" height="2" fill="#ffffff"/><rect x="75" y="80" width="2" height="2" fill="#ffffff"/><rect x="75" y="82" width="2" height="2" fill="#ffffff"/><rect x="75" y="84" width="2" height="2" fill="#ffffff"/><rect x="75" y="86" width="2" height="2" fill="#ffffff"/><rect x="75" y="88" width="2" height="2" fill="#ffffff"/><rect x="85" y="76" width="2" height="2" fill="#ffffff"/><rect x="87" y="76" width="2" height="2" fill="#ffffff"/><rect x="89" y="76" width="2" height="2" fill="#ffffff"/><rect x="87" y="78" width="2" height="2" fill="#ffffff"/><rect x="87" y="80" width="2" height="2" fill="#ffffff"/><rect x="87" y="82" width="2" height="2" fill="#ffffff"/><rect x="87" y="84" width="2" height="2" fill="#ffffff"/><rect x="87" y="86" width="2" height="2" fill="#ffffff"/><rect x="85" y="88" width="2" height="2" fill="#ffffff"/><rect x="87" y="88" width="2" height="2" fill="#ffffff"/><rect x="89" y="88" width="2" height="2" fill="#ffffff"/><rect x="97" y="76" width="2" height="2" fill="#ffffff"/><rect x="99" y="76" width="2" height="2" fill="#ffffff"/><rect x="101" y="76" width="2" height="2" fill="#ffffff"/><rect x="95" y="78" width="2" height="2" fill="#ffffff"/><rect x="103" y="78" width="2" height="2" fill="#ffffff"/><rect x="95" y="80" width="2" height="2" fill="#ffffff"/><rect x="95" y="82" width="2" height="2" fill="#ffffff"/><rect x="95" y="84" width="2" height="2" fill="#ffffff"/><rect x="95" y="86" width="2" height="2" fill="#ffffff"/><rect x="103" y="86" width="2" height="2" fill="#ffffff"/><rect x="97" y="88" width="2" height="2" fill="#ffffff"/><rect x="99" y="88" width="2" height="2" fill="#ffffff"/><rect x="101" y="88" width="2" height="2" fill="#ffffff"/><rect x="109" y="76" width="2" height="2" fill="#ffffff"/><rect x="111" y="76" width="2" height="2" fill="#ffffff"/><rect x="113" y="76" width="2" height="2" fill="#ffffff"/><rect x="115" y="76" width="2" height="2" fill="#ffffff"/><rect x="107" y="78" width="2" height="2" fill="#ffffff"/><rect x="107" y="80" width="2" height="2" fill="#ffffff"/><rect x="109" y="82" width="2" height="2" fill="#ffffff"/><rect x="111" y="82" width="2" height="2" fill="#ffffff"/><rect x="113" y="82" width="2" height="2" fill="#ffffff"/><rect x="115" y="84" width="2" height="2" fill="#ffffff"/><rect x="115" y="86" width="2" height="2" fill="#ffffff"/><rect x="107" y="88" width="2" height="2" fill="#ffffff"/><rect x="109" y="88" width="2" height="2" fill="#ffffff"/><rect x="111" y="88" width="2" height="2" fill="#ffffff"/><rect x="113" y="88" width="2" height="2" fill="#ffffff"/></g></svg>
